<?xml version="1.0" standalone="no"?>
<!DOCTYPE svg PUBLIC "-//W3C//DTD SVG 20010904//EN"
 "http://www.w3.org/TR/2001/REC-SVG-20010904/DTD/svg10.dtd">
<svg version="1.0" xmlns="http://www.w3.org/2000/svg"
 width="123.000000pt" height="130.000000pt" viewBox="0 0 123.000000 130.000000"
 preserveAspectRatio="xMidYMid meet">

<g transform="translate(0.000000,130.000000) scale(0.100000,-0.100000)"
fill="#000000" stroke="none">
<path d="M492 1171 c-61 -16 -102 -74 -102 -146 l0 -35 -99 0 c-82 0 -103 -3
-122 -19 -20 -16 -21 -21 -10 -35 8 -10 29 -16 52 -16 l38 0 3 -346 3 -346 37
-34 38 -34 279 0 c298 0 317 3 348 49 16 23 19 63 23 366 l5 340 45 5 c49 6
63 26 35 54 -13 13 -38 16 -121 16 l-104 0 0 41 c0 55 -23 101 -63 124 -26 16
-54 20 -142 22 -60 1 -125 -2 -143 -6z m264 -85 c8 -11 14 -37 14 -58 l0 -38
-155 0 -155 0 0 35 c0 25 8 44 25 61 25 25 29 26 141 22 101 -3 117 -6 130
-22z m154 -499 c0 -246 -3 -336 -12 -345 -9 -9 -85 -12 -279 -12 -230 0 -270
2 -283 16 -14 13 -16 59 -16 345 l0 329 295 0 295 0 0 -333z"/>
<path d="M502 738 c-17 -17 -17 -319 0 -336 16 -16 23 -15 42 4 13 13 16 42
16 160 0 81 -5 154 -10 165 -12 22 -30 25 -48 7z"/>
<path d="M692 738 c-17 -17 -17 -319 0 -336 16 -16 23 -15 42 4 13 13 16 42
16 160 0 81 -5 154 -10 165 -12 22 -30 25 -48 7z"/>
</g>
</svg>
