<?xml version="1.0" standalone="no"?>
<!DOCTYPE svg PUBLIC "-//W3C//DTD SVG 20010904//EN"
 "http://www.w3.org/TR/2001/REC-SVG-20010904/DTD/svg10.dtd">
<svg version="1.0" xmlns="http://www.w3.org/2000/svg"
 width="121.000000pt" height="124.000000pt" viewBox="0 0 121.000000 124.000000"
 preserveAspectRatio="xMidYMid meet">

<g transform="translate(0.000000,124.000000) scale(0.100000,-0.100000)"
fill="#000000" stroke="none">
<path d="M375 967 l-220 -172 -3 -298 -2 -297 34 -37 34 -38 371 -3 c411 -3
423 -1 461 60 19 31 20 50 20 320 l0 287 -225 176 c-124 96 -231 175 -238 175
-6 -1 -111 -78 -232 -173z m433 -61 l192 -149 0 -261 c0 -323 7 -306 -121
-306 l-89 0 0 218 c0 159 -3 223 -13 235 -11 16 -31 17 -177 15 l-165 -3 -3
-232 -2 -233 -87 0 c-131 0 -123 -20 -123 301 l0 268 193 150 c105 83 195 150
198 148 3 -1 92 -69 197 -151z m-88 -516 l0 -200 -110 0 -110 0 0 200 0 200
110 0 110 0 0 -200z"/>
</g>
</svg>
