<?xml version="1.0" standalone="no"?>
<!DOCTYPE svg PUBLIC "-//W3C//DTD SVG 20010904//EN"
 "http://www.w3.org/TR/2001/REC-SVG-20010904/DTD/svg10.dtd">
<svg version="1.0" xmlns="http://www.w3.org/2000/svg"
 width="130.000000pt" height="132.000000pt" viewBox="0 0 130.000000 132.000000"
 preserveAspectRatio="xMidYMid meet">

<g transform="translate(0.000000,132.000000) scale(0.100000,-0.100000)"
fill="#000000" stroke="none">
<path d="M335 725 c-50 -50 -23 -130 47 -142 32 -5 41 -1 68 25 33 34 37 59
15 101 -25 49 -90 57 -130 16z"/>
<path d="M605 718 c-32 -38 -29 -81 11 -115 55 -50 134 -11 134 65 0 81 -92
113 -145 50z"/>
<path d="M885 725 c-52 -51 -12 -145 60 -145 27 0 63 22 74 47 28 62 -8 123
-74 123 -25 0 -44 -8 -60 -25z"/>
</g>
</svg>
