<?xml version="1.0" standalone="no"?>
<!DOCTYPE svg PUBLIC "-//W3C//DTD SVG 20010904//EN"
 "http://www.w3.org/TR/2001/REC-SVG-20010904/DTD/svg10.dtd">
<svg version="1.0" xmlns="http://www.w3.org/2000/svg"
 width="112.000000pt" height="114.000000pt" viewBox="0 0 112.000000 114.000000"
 preserveAspectRatio="xMidYMid meet">

<g transform="translate(0.000000,114.000000) scale(0.100000,-0.100000)"
fill="#000000" stroke="none">
<path d="M397 980 c-84 -27 -160 -81 -212 -151 -133 -181 -94 -441 87 -575 79
-58 144 -79 243 -78 96 0 142 12 217 57 l56 34 93 -93 c93 -94 129 -113 143
-78 3 9 6 18 6 21 0 3 -43 50 -96 103 l-95 97 31 49 c41 66 60 133 60 219 0
91 -20 158 -70 232 -99 149 -293 218 -463 163z m264 -82 c75 -34 120 -76 160
-150 32 -59 34 -69 34 -158 0 -82 -4 -103 -27 -152 -32 -69 -92 -129 -166
-165 -49 -24 -69 -28 -142 -28 -76 0 -92 3 -152 33 -103 50 -164 131 -188 245
-26 129 39 282 150 352 98 62 226 71 331 23z"/>
</g>
</svg>
